%
T1C.01181F095S3
X002098Y013291
X001335Y013543
X001602Y013866
X001339Y014256
X001315Y014646
X-000346Y014654
X-000358Y014913
X001299Y015059
X-000354Y015189
X001713Y015394
X001374Y015449
X-000354Y015465
X001969Y015528
X001996Y016051
X004378Y016449
X003772Y015315
X002323Y014929
X003024Y014925
X002701Y014567
X004039Y014343
X002323Y01422
X003031Y014213
X002819Y013185
T2C.01969F095S3
X000988Y-010571
X001031Y-008799
X001016Y-006634
X001035Y-004862
X000921Y-002697
X001008Y-000925
X000953Y00124
X000992Y003012
X001047Y005177
X001575Y007713
X-000059Y007799
X001106Y009114
X-000213Y01178
X001339Y011807
X000421Y01213
X-00037Y015906
X-000122Y016087
X001374Y016118
X000142Y017008
X000252Y017295
X003327Y017232
X002772Y016898
X003067Y01687
X004252Y015894
X004122Y015445
X004268Y01172
X002594Y0095
X003016Y0095
X002165Y009488
X002169Y008937
X003724Y007685
X003197Y005177
X003201Y003012
X003217Y00124
X003209Y-000925
X003213Y-002697
X003181Y-004862
X003295Y-006634
X003307Y-008799
X003299Y-010571
X005094Y-008028
X005094Y-007406
X006614Y-002697
X005091Y-000154
X005091Y000469
X006583Y00124
X005138Y006382
X005138Y007004
X005169Y009098
X006949Y009598
X006047Y010787
X006949Y011012
X005173Y011035
X00689Y014433
X006787Y016531
X00548Y016882
X007488Y016441
X010602Y01561
X010886Y011008
X009098Y009098
X011705Y007689
X00772Y007685
X007783Y005177
X011134Y005177
X008543Y003012
X00852Y00124
X008504Y-000925
X008583Y-002697
X008425Y-004862
X008488Y-008799
X013654Y-008803
X014827Y-008028
X014811Y-007406
X013634Y-004862
X013634Y-000925
X014839Y-000154
X014854Y000469
X013634Y003012
X014764Y006382
X014764Y007004
X016173Y007685
X013024Y009098
X015551Y009126
X015551Y010886
X015382Y011717
X016169Y013996
X018839Y010886
X01878Y010142
X019087Y009732
X01889Y009114
X018157Y008102
X019303Y007996
X017362Y007669
X019197Y006039
X017394Y005937
X017465Y004028
X019268Y004008
X017339Y003008
X019248Y002012
X017413Y001945
X017362Y-000929
X019445Y-001894
X017331Y-002071
X01737Y-003807
X019413Y-003854
X017394Y-004866
X018886Y-007803
X017413Y-008803
X020433Y010323
T3C.03543F197S55
X0075Y017087
X0085Y017087
X0095Y017087
X0105Y017087
X0115Y017087
X0125Y017087
M30
