*
*
G04 PADS 9.5 Build Number: 522968 generated Gerber (RS-274-X) file*
G04 PC Version=2.1*
*
%IN "key board v1.0.pcb"*%
*
%MOIN*%
*
%FSLAX35Y35*%
*
*
*
*
G04 PC Standard Apertures*
*
*
G04 Thermal Relief Aperture macro.*
%AMTER*
1,1,$1,0,0*
1,0,$1-$2,0,0*
21,0,$3,$4,0,0,45*
21,0,$3,$4,0,0,135*
%
*
*
G04 Annular Aperture macro.*
%AMANN*
1,1,$1,0,0*
1,0,$2,0,0*
%
*
*
G04 Odd Aperture macro.*
%AMODD*
1,1,$1,0,0*
1,0,$1-0.005,0,0*
%
*
*
G04 PC Custom Aperture Macros*
*
*
*
*
*
*
G04 PC Aperture Table*
*
%ADD010C,0.001*%
%ADD011R,0.06496X0.04331*%
%ADD012R,0.04331X0.06496*%
%ADD015R,0.0315X0.00984*%
%ADD016R,0.00984X0.0315*%
%ADD017R,0.10236X0.10236*%
%ADD018R,0.025X0.02*%
%ADD019R,0.02X0.025*%
%ADD020R,0.05X0.036*%
%ADD021R,0.03X0.038*%
%ADD022R,0.05X0.06*%
%ADD028C,0.01*%
*
*
*
*
G04 PC Circuitry*
G04 Layer Name key board v1.0.pcb - circuitry*
%LPD*%
*
*
G04 PC Custom Flashes*
G04 Layer Name key board v1.0.pcb - flashes*
%LPD*%
*
*
G04 PC Circuitry*
G04 Layer Name key board v1.0.pcb - circuitry*
%LPD*%
*
G54D10*
G54D11*
G01X1904232Y1521260D03*
X1938287D03*
X1904232Y1503543D03*
X1938287D03*
X1956988Y1521260D03*
X1991043D03*
X1956988Y1503543D03*
X1991043D03*
X2008957Y1521260D03*
X2043012D03*
X2008957Y1503543D03*
X2043012D03*
X2061713Y1521260D03*
X2095768D03*
X2061713Y1503543D03*
X2095768D03*
X1904232Y1560630D03*
X1938287D03*
X1904232Y1542913D03*
X1938287D03*
X1956988Y1560630D03*
X1991043D03*
X1956988Y1542913D03*
X1991043D03*
X2008957Y1560630D03*
X2043012D03*
X2008957Y1542913D03*
X2043012D03*
X2061713Y1560630D03*
X2095768D03*
X2061713Y1542913D03*
X2095768D03*
X1904232Y1600000D03*
X1938287D03*
X1904232Y1582283D03*
X1938287D03*
X1956988Y1600000D03*
X1991043D03*
X1956988Y1582283D03*
X1991043D03*
X2008957Y1600000D03*
X2043012D03*
X2008957Y1582283D03*
X2043012D03*
X2061713Y1600000D03*
X2095768D03*
X2061713Y1582283D03*
X2095768D03*
X1982972Y1639370D03*
X2017028D03*
X1982972Y1621654D03*
X2017028D03*
X1982972Y1718110D03*
X2017028D03*
X1982972Y1700394D03*
X2017028D03*
X1904232Y1639370D03*
X1938287D03*
X1904232Y1621654D03*
X1938287D03*
X2061713Y1639370D03*
X2095768D03*
X2061713Y1621654D03*
X2095768D03*
X1904232Y1678740D03*
X1938287D03*
X1904232Y1661024D03*
X1938287D03*
X2061713Y1678740D03*
X2095768D03*
X2061713Y1661024D03*
X2095768D03*
X1904232Y1481890D03*
X1938287D03*
X1904232Y1464173D03*
X1938287D03*
X2061713Y1481890D03*
X2095768D03*
X2061713Y1464173D03*
X2095768D03*
X1956988Y1481890D03*
X1991043D03*
X1956988Y1464173D03*
X1991043D03*
X2008957Y1481890D03*
X2043012D03*
X2008957Y1464173D03*
X2043012D03*
G54D12*
X1991142Y1652854D03*
Y1686909D03*
X2008858Y1652854D03*
Y1686909D03*
X1951772Y1652854D03*
Y1686909D03*
X1969488Y1652854D03*
Y1686909D03*
X2030512Y1652854D03*
Y1686909D03*
X2048228Y1652854D03*
Y1686909D03*
G54D15*
X1918504Y1720472D03*
Y1718504D03*
Y1716535D03*
Y1714567D03*
Y1712598D03*
Y1710630D03*
X1935039D03*
Y1712598D03*
Y1714567D03*
Y1716535D03*
Y1718504D03*
Y1720472D03*
G54D16*
X1921850Y1707283D03*
X1923819D03*
X1925787D03*
X1927756D03*
X1929724D03*
X1931693D03*
Y1723819D03*
X1929724D03*
X1927756D03*
X1925787D03*
X1923819D03*
X1921850D03*
G54D17*
X1926772Y1715551D03*
G54D18*
X1909587Y1717913D03*
X1904587D03*
X1909587Y1712402D03*
X1904587D03*
X1909587Y1706890D03*
X1904587D03*
X1909587Y1701378D03*
X1904587D03*
X1946319D03*
X1951319D03*
X1946319Y1706890D03*
X1951319D03*
X1946319Y1712402D03*
X1951319D03*
X1946319Y1717913D03*
X1951319D03*
X1946319Y1723425D03*
X1951319D03*
X1946319Y1728937D03*
X1951319D03*
X1909587Y1723425D03*
X1904587D03*
X1909587Y1728937D03*
X1904587D03*
Y1734449D03*
X1909587D03*
X1946319D03*
X1951319D03*
X1946319Y1739961D03*
X1951319D03*
X1909587D03*
X1904587D03*
G54D19*
X1927559Y1735374D03*
Y1730374D03*
X1933071Y1735374D03*
Y1730374D03*
X1922047D03*
Y1735374D03*
X2048031Y1721713D03*
Y1726713D03*
X1916535Y1730374D03*
Y1735374D03*
G54D20*
X2055243Y1727963D03*
Y1720463D03*
X2063943Y1724213D03*
G54D21*
X1947244Y1639911D03*
Y1633711D03*
Y1574557D03*
Y1568357D03*
Y1495817D03*
Y1489617D03*
X2052756Y1639911D03*
Y1633711D03*
Y1574557D03*
Y1568357D03*
Y1495817D03*
Y1489617D03*
G54D22*
X2073976Y1728083D03*
Y1719083D03*
G54D28*
X2114094Y1748583D02*
X2118110Y1746142D01*
Y1454606*
X2113346Y1451417*
X1886181*
X1881890Y1454370*
Y1745591*
X1886102Y1748583*
X2114094*
X2115354Y1460039D02*
G75*
G03X2115354I-5905J0D01*
G01X1896457D02*
G03X1896457I-5906J0D01*
G01Y1740748D02*
G03X1896457I-5906J0D01*
G01X2115354D02*
G03X2115354I-5905J0D01*
G74*
G01X0Y0D02*
M02*
